<svg xmlns="http://www.w3.org/2000/svg" fill="none" viewBox="0 0 192 94"><g clip-path="url(#a)"><path fill="#F0857E" d="M44.671 7.1a26.629 26.629 0 00-10.633-6.037 42.271 42.271 0 015.323 9.364 21.173 21.173 0 015.304-3.328h.006zM34.044 52.127a26.584 26.584 0 0010.633-6.03 21.26 21.26 0 01-5.304-3.334 42.522 42.522 0 01-5.322 9.364h-.007z"/><path fill="#F5A266" d="M42.55 26.595a42.39 42.39 0 01-3.183 16.168 21.375 21.375 0 005.304 3.334 26.66 26.66 0 006.392-9.075 10.637 10.637 0 01-8.512-10.427zm0 0c0-5.148 3.66-9.445 8.513-10.427a26.66 26.66 0 00-6.392-9.075 21.061 21.061 0 00-5.304 3.327 42.39 42.39 0 013.184 16.169v.006z"/><path fill="#F9B44F" d="M42.55 26.595c0 5.148 3.66 9.438 8.513 10.426a26.544 26.544 0 002.12-10.426c0-3.703-.756-7.224-2.12-10.427a10.637 10.637 0 00-8.512 10.427z"/><path fill="#EB5C7B" d="M34.038 52.127a32.02 32.02 0 01-7.443-7.894 32.135 32.135 0 01-7.443 7.894 26.592 26.592 0 0014.886 0zm-7.443-43.17a32.129 32.129 0 017.443-7.894 26.593 26.593 0 00-14.886 0 31.909 31.909 0 017.443 7.894z"/><path fill="#ED6B6A" d="M26.595 8.957a31.75 31.75 0 015.316 17.638c0-6.474 2.896-12.272 7.456-16.168a42.523 42.523 0 00-5.323-9.364 31.908 31.908 0 00-7.443 7.894h-.006z"/><path fill="#ED6B6A" d="M31.911 26.595a31.714 31.714 0 01-5.316 17.632 32.02 32.02 0 007.443 7.893 42.27 42.27 0 005.323-9.363c-4.56-3.903-7.456-9.695-7.456-16.168l.006.006z"/><path fill="#F0826B" d="M39.367 42.763a42.39 42.39 0 003.184-16.168 42.39 42.39 0 00-3.184-16.168c-4.56 3.902-7.455 9.694-7.455 16.168 0 6.474 2.895 12.265 7.455 16.168z"/><path fill="#C9548C" d="M19.146 1.063A26.457 26.457 0 008.519 7.1a21.172 21.172 0 015.304 3.328 42.774 42.774 0 015.323-9.364zM8.519 46.097a26.518 26.518 0 0010.627 6.03 42.518 42.518 0 01-5.323-9.364 21.259 21.259 0 01-5.304 3.334z"/><path fill="#D24379" d="M26.595 44.233a31.746 31.746 0 01-5.317-17.632 31.767 31.767 0 015.317-17.638 32.244 32.244 0 00-7.443-7.893h-.007a42.272 42.272 0 00-5.322 9.363c4.56 3.903 7.455 9.695 7.455 16.168 0 6.474-2.896 12.266-7.455 16.169a42.77 42.77 0 005.322 9.363h.007a31.907 31.907 0 007.443-7.894v-.006z"/><path fill="#E9426D" d="M26.595 8.957a31.75 31.75 0 00-5.317 17.638 31.714 31.714 0 005.317 17.632 31.745 31.745 0 005.316-17.632 31.766 31.766 0 00-5.316-17.638z"/><path fill="#A7358B" d="M10.64 26.595c0-5.73 1.131-11.183 3.183-16.168a21.06 21.06 0 00-5.304-3.328 26.539 26.539 0 00-6.393 9.076c4.854.982 8.513 5.279 8.513 10.426v-.006z"/><path fill="#A7358B" d="M10.64 26.595c0 5.148-3.66 9.438-8.514 10.427a26.658 26.658 0 006.393 9.075 21.376 21.376 0 005.304-3.334 42.39 42.39 0 01-3.184-16.168z"/><path fill="#C1307A" d="M13.823 42.763c4.56-3.903 7.455-9.694 7.455-16.168 0-6.474-2.895-12.272-7.455-16.168a42.39 42.39 0 00-3.184 16.168 42.39 42.39 0 003.184 16.168z"/><path fill="#951B81" d="M10.64 26.595c0-5.148-3.66-9.445-8.513-10.427A26.438 26.438 0 000 26.595c0 3.703.757 7.224 2.127 10.426 4.853-.982 8.512-5.279 8.512-10.426z"/><path fill="#1D1D1B" d="M84.244 24.224h-6.611v11.221h-3.09V21.354h12.79v14.091h-3.089v-11.22zm6.53 11.215V21.347h3.09v9.188l7.48-9.188h2.684V35.44h-3.09v-9.157l-7.48 9.157h-2.684zm16.687-14.085h3.09v5.716l6.099-5.716h4.04l-6.855 6.367 7.099 7.724h-3.959l-5.392-5.798-1.032 1v4.798h-3.09V21.354zm14.905 1.757c1.326-1.3 3.603-2.089 5.905-2.089 3.709 0 5.773 2.114 5.773 5.798v8.619h-3.09v-1.545c-.838.92-2.277 1.708-4.366 1.708-3.089 0-5.122-1.733-5.122-4.441 0-3.14 2.846-4.472 6.586-4.472 1.001 0 2.252.162 2.902.381.025-2.032-.757-3.17-3.033-3.17-1.545 0-2.684.462-4.035 1.488l-1.513-2.277h-.007zm8.588 7.887v-1.357c-.569-.188-1.57-.382-2.577-.382-2.22 0-3.715.463-3.715 1.87 0 1.114 1.032 1.79 2.602 1.79 1.87 0 3.065-.976 3.684-1.927l.006.006zm19.396 1.22c-1.164 2.277-3.603 3.465-6.042 3.465-4.522 0-7.587-2.871-7.587-7.318 0-4.172 2.977-7.343 7.424-7.343 2.896 0 5.123 1.326 6.042 3.196l-2.302 1.52c-.95-1.276-2.007-1.845-3.602-1.845-2.546 0-4.366 1.814-4.366 4.472 0 2.658 1.845 4.44 4.685 4.44 1.601 0 2.764-.812 3.552-2.007l2.196 1.407v.013zm14.36 0c-1.169 2.277-3.602 3.465-6.042 3.465-4.522 0-7.586-2.871-7.586-7.318 0-4.172 2.983-7.343 7.424-7.343 2.902 0 5.122 1.326 6.042 3.196l-2.302 1.52c-.951-1.276-2.008-1.845-3.603-1.845-2.545 0-4.359 1.814-4.359 4.472 0 2.658 1.845 4.44 4.691 4.44 1.595 0 2.765-.812 3.546-2.007l2.196 1.407-.007.013zm8.263-11.19c4.441 0 7.562 3.09 7.562 7.343s-3.115 7.318-7.562 7.318-7.531-3.09-7.531-7.318 3.059-7.343 7.531-7.343zm0 11.784c2.571 0 4.366-1.732 4.366-4.44 0-2.71-1.927-4.473-4.366-4.473-2.439 0-4.334 1.708-4.334 4.472 0 2.546 1.763 4.441 4.334 4.441zM81.454 52.483h-5.998v4.303h-.944v-9.332h.944v4.147h5.998v-4.147h.945v9.332h-.945v-4.303zm9.126 2.984c-.625.975-1.639 1.45-2.758 1.45-2.202 0-3.678-1.413-3.678-3.615 0-2.039 1.226-3.627 3.503-3.627 1.826 0 3.183 1.238 3.183 3.146 0 .238-.025.506-.05.744h-5.716c.025 1.601 1.213 2.52 2.795 2.52.895 0 1.72-.518 2.133-1.144l.588.52v.006zm-5.529-2.69h4.854c-.038-1.426-.92-2.277-2.32-2.277-1.483 0-2.384.976-2.534 2.277zm6.755 2.615l.694-.495c.388.695 1.264 1.214 2.383 1.214 1.189 0 2.146-.52 2.146-1.37 0-.72-.576-1.082-1.589-1.082h-1.676v-.8h1.601c.707 0 1.401-.439 1.401-1.177 0-.788-.838-1.188-1.933-1.188-1.094 0-1.732.544-2.132 1.013l-.65-.425c.374-.626 1.388-1.401 2.901-1.401 1.72 0 2.746.72 2.746 1.839 0 .707-.344 1.238-.932 1.557.932.388 1.188.907 1.188 1.614 0 1.438-1.357 2.227-2.958 2.227-1.601 0-2.614-.626-3.184-1.533l-.006.007zm7.712-4.735c.638-.588 1.733-.976 2.677-.976 1.895 0 2.852 1.026 2.852 2.796v4.303h-.869v-1.145c-.438.65-1.295 1.239-2.615 1.239-1.495 0-2.508-.813-2.508-2.064 0-1.483 1.251-2.108 3.371-2.108.532 0 1.389.106 1.746.213 0-1.426-.413-2.415-2.09-2.415-.8 0-1.494.332-2.107.813l-.47-.669.013.013zm4.666 3.878v-.826a6.068 6.068 0 00-1.626-.213c-1.589 0-2.59.307-2.59 1.264 0 .825.776 1.32 1.839 1.32 1.307 0 2.121-.945 2.371-1.545h.006zm2.771-4.679h2.84c1.851 0 2.771.438 2.771 1.733 0 .731-.344 1.226-.97 1.544.826.226 1.226.839 1.226 1.72 0 1.264-1.013 1.933-2.908 1.933h-2.959v-6.93zm.869.813v2.183h2.308c.932 0 1.52-.413 1.52-1.132 0-.882-.85-1.05-1.895-1.05h-1.933zm0 2.984v2.32h1.996c1.357 0 2.076-.363 2.076-1.188 0-.826-.638-1.132-1.876-1.132h-2.202.006zm6.63 3.133v-6.93h.87v5.654l4.572-5.654h.838v6.93h-.863v-5.635l-4.573 5.635h-.844zm14.33-1.319c-.507.944-1.72 1.45-2.759 1.45-2.201 0-3.69-1.413-3.69-3.615 0-2.039 1.439-3.627 3.64-3.627 1.12 0 2.214.519 2.69 1.32l-.682.481c-.507-.663-1.12-.976-2.014-.976-1.557 0-2.721 1.176-2.721 2.796 0 1.62 1.157 2.784 2.84 2.784.882 0 1.639-.45 2.095-1.108l.601.482v.013zm1.275 1.319v-6.93h.864v5.654l4.572-5.654h.838v6.93h-.869v-5.635l-4.573 5.635h-.838.006zm8.301-6.93h.813l2.84 3.665 2.783-3.665h.757v6.93h-.87v-5.435l-2.677 3.503-2.783-3.503v5.435h-.869v-6.93h.006zm9.219 0h.863v2.264h1.695c2.146 0 2.784 1.051 2.784 2.32 0 1.27-.72 2.346-2.909 2.346h-2.439v-6.93h.006zm.863 3.09v3.015h1.545c1.482 0 2.014-.576 2.014-1.508s-.557-1.507-2.001-1.507h-1.558zm5.667-3.09h.869v6.93h-.869v-6.93zm8.888 5.611c-.626.975-1.639 1.45-2.759 1.45-2.201 0-3.677-1.413-3.677-3.615 0-2.039 1.225-3.627 3.502-3.627 1.827 0 3.184 1.238 3.184 3.146 0 .238-.025.506-.05.744h-5.717c.025 1.601 1.213 2.52 2.802 2.52.895 0 1.72-.518 2.133-1.144l.588.52-.006.006zm-5.53-2.69h4.854c-.037-1.426-.919-2.277-2.32-2.277-1.483 0-2.383.976-2.534 2.277zM74.362 67.563h.87v6.105h4.29v-6.105h.87v6.105h1.013v2.558h-.826v-1.733h-6.21v-6.93h-.007zm14.317 5.611c-.626.975-1.639 1.45-2.759 1.45-2.201 0-3.677-1.413-3.677-3.608 0-2.04 1.226-3.628 3.502-3.628 1.827 0 3.184 1.238 3.184 3.146 0 .238-.025.507-.05.744h-5.717c.025 1.602 1.213 2.521 2.796 2.521.894 0 1.72-.52 2.133-1.145l.588.52zm-5.53-2.69h4.854c-.037-1.426-.92-2.277-2.32-2.277-1.483 0-2.383.976-2.533 2.277zm12.654.888h-4.41v3.121h-.87v-6.93h.87v2.984h4.41v-2.984h.863v6.93h-.863v-3.12zm2.027-3.809h6.36v.826h-2.758v6.104h-.863V68.39h-2.734v-.826h-.006zm7.511 0h.87v1.026c.556-.882 1.545-1.201 2.464-1.201 2.039 0 3.277 1.451 3.277 3.503 0 2.051-1.413 3.734-3.452 3.734-1.07 0-1.733-.25-2.296-.826v3.359h-.869v-9.595h.006zm.87 2.308v2.69c.494.906 1.369 1.238 2.264 1.238 1.482 0 2.558-1.188 2.558-2.84 0-1.65-.932-2.745-2.439-2.745-1.239 0-2.096.85-2.383 1.65v.007zm7.355-2.308h.863v2.264h1.695c2.146 0 2.784 1.051 2.784 2.32 0 1.27-.719 2.346-2.909 2.346h-2.439v-6.93h.006zm.863 3.09v3.015h1.545c1.483 0 2.014-.576 2.014-1.508s-.556-1.507-2.001-1.507h-1.558zm5.667-3.09h.87v6.93h-.87v-6.93zm7.137 0h.863v1.026c.563-.882 1.545-1.201 2.464-1.201 2.039 0 3.278 1.451 3.278 3.503 0 2.051-1.414 3.734-3.453 3.734-1.069 0-1.732-.25-2.295-.826v3.359h-.863v-9.595h.006zm.863 2.308v2.69c.494.906 1.376 1.238 2.264 1.238 1.483 0 2.558-1.188 2.558-2.84 0-1.65-.932-2.745-2.439-2.745-1.238 0-2.089.85-2.383 1.65v.007zm13.366 3.303c-.626.975-1.639 1.45-2.758 1.45-2.202 0-3.678-1.413-3.678-3.608 0-2.04 1.226-3.628 3.502-3.628 1.827 0 3.184 1.238 3.184 3.146 0 .238-.025.507-.05.744h-5.717c.025 1.602 1.214 2.521 2.802 2.521.895 0 1.72-.52 2.133-1.145l.588.52h-.006zm-5.529-2.69h4.853c-.037-1.426-.919-2.277-2.32-2.277-1.482 0-2.383.976-2.533 2.277zm12.66.888h-4.41v3.121h-.863v-6.93h.863v2.984h4.41v-2.984h.869v6.93h-.869v-3.12zm2.026-3.809h6.354v.826h-2.758v6.104h-.863V68.39h-2.733v-.826zm7.512 0h4.947v.826H159v6.104h-.863v-6.93h-.006zm11.859 5.611c-.626.975-1.639 1.45-2.759 1.45-2.201 0-3.677-1.413-3.677-3.608 0-2.04 1.226-3.628 3.502-3.628 1.827 0 3.184 1.238 3.184 3.146 0 .238-.025.507-.056.744h-5.717c.025 1.602 1.213 2.521 2.802 2.521.894 0 1.72-.52 2.133-1.145l.588.52zm-5.529-2.69h4.853c-.037-1.426-.919-2.277-2.32-2.277-1.483 0-2.383.976-2.533 2.277zm12.659.888h-4.41v3.121h-.863v-6.93h.863v2.984h4.41v-2.984h.869v6.93h-.869v-3.12zm6.117-3.984c2.158 0 3.653 1.52 3.653 3.628s-1.495 3.609-3.653 3.609-3.653-1.52-3.653-3.61c0-2.088 1.483-3.627 3.653-3.627zm0 6.411c1.601 0 2.733-1.132 2.733-2.783 0-1.652-1.169-2.796-2.733-2.796-1.563 0-2.733 1.132-2.733 2.796 0 1.663 1.132 2.783 2.733 2.783zm5.567-3.359H192v.813h-3.196v-.813zM73.536 91.368h.744c.788-1.132.957-2.758.957-4.622v-1.482h5.08v6.104h1.025v2.559h-.826v-1.733h-6.154v1.733h-.826v-2.559zm2.546-4.465c0 1.707-.213 3.383-.838 4.465h4.21V86.09h-3.372v.813zm6.461 5.291v-6.93h.863v5.654l4.572-5.654h.838v6.93h-.87v-5.635l-4.571 5.635h-.838.006zm8.237-6.13c.638-.587 1.733-.975 2.677-.975 1.896 0 2.853 1.026 2.853 2.796v4.303h-.864v-1.145c-.438.65-1.294 1.239-2.614 1.239-1.495 0-2.508-.813-2.508-2.064 0-1.483 1.25-2.108 3.371-2.108.532 0 1.389.106 1.745.212 0-1.426-.413-2.414-2.095-2.414-.8 0-1.495.332-2.108.813l-.463-.67.006.013zm4.666 3.878v-.825c-.4-.12-1-.213-1.626-.213-1.589 0-2.59.306-2.59 1.264 0 .825.776 1.32 1.84 1.32 1.307 0 2.12-.945 2.37-1.546h.006zm2.764-4.678h4.948v.826H99.08v6.104h-.87v-6.93zm11.384 3.816h-4.409v3.12h-.87v-6.93h.87v2.984h4.409V85.27h.864v6.93h-.864v-3.12zm6.117-3.991c2.158 0 3.653 1.52 3.653 3.627 0 2.108-1.495 3.61-3.653 3.61s-3.652-1.52-3.652-3.61c0-2.089 1.482-3.627 3.652-3.627zm0 6.41c1.595 0 2.734-1.131 2.734-2.783 0-1.65-1.176-2.802-2.734-2.802-1.557 0-2.733 1.132-2.733 2.802 0 1.67 1.132 2.784 2.733 2.784zm11.271-.625c-.506.945-1.72 1.451-2.758 1.451-2.202 0-3.697-1.413-3.697-3.609 0-2.039 1.439-3.627 3.641-3.627 1.119 0 2.214.519 2.689 1.32l-.682.481c-.506-.67-1.119-.976-2.014-.976-1.557 0-2.72 1.176-2.72 2.802 0 1.627 1.157 2.784 2.839 2.784.882 0 1.639-.45 2.095-1.107l.601.481h.006zm.369-5.61h6.355v.826h-2.758v6.104h-.869v-6.105h-2.734v-.825h.006zm7.519 6.93v-6.93h.863v5.654l4.572-5.654h.838v6.93h-.869v-5.635l-4.573 5.635h-.838.007zm8.299-6.93h.87v3.346l3.84-3.346h1.189l-3.722 3.215 3.928 3.715h-1.201l-3.415-3.184-.626.563V92.2h-.869v-6.93l.006-.006zm7.262 6.93v-6.93h.863v5.654l4.572-5.654h.839v6.93h-.87v-5.635l-4.572 5.635h-.838.006z"/></g><defs><clipPath id="a"><path fill="#fff" d="M0 0h192v93.927H0z"/></clipPath></defs></svg>